<svg xmlns="http://www.w3.org/2000/svg" viewBox="0 0 720 560" role="img" aria-labelledby="title desc">
  <title id="title">Alloy creator support dashboard visual</title>
  <desc id="desc">Abstract interface cards representing LIVE guidance, creator messages, and performance insight review.</desc>
  <rect width="720" height="560" rx="8" fill="#f7f9fc"/>
  <rect x="42" y="44" width="636" height="472" rx="8" fill="#ffffff" stroke="#d8dee8" stroke-width="2"/>
  <rect x="42" y="44" width="636" height="72" rx="8" fill="#101828"/>
  <circle cx="88" cy="80" r="12" fill="#2c9f91"/>
  <circle cx="126" cy="80" r="12" fill="#d85f57"/>
  <circle cx="164" cy="80" r="12" fill="#6d5bd0"/>
  <rect x="220" y="68" width="220" height="24" rx="6" fill="#25344f"/>
  <rect x="498" y="64" width="112" height="32" rx="6" fill="#2c9f91"/>

  <rect x="78" y="154" width="300" height="196" rx="8" fill="#101828"/>
  <rect x="104" y="178" width="248" height="26" rx="6" fill="#ffffff" opacity=".92"/>
  <rect x="104" y="218" width="168" height="18" rx="5" fill="#9de0d7"/>
  <rect x="104" y="258" width="222" height="16" rx="5" fill="#d8dee8" opacity=".8"/>
  <rect x="104" y="290" width="196" height="16" rx="5" fill="#d8dee8" opacity=".65"/>
  <rect x="104" y="318" width="124" height="14" rx="5" fill="#d85f57"/>
  <circle cx="314" cy="282" r="36" fill="#2c9f91"/>
  <path d="M302 264v36l28-18-28-18Z" fill="#ffffff"/>

  <rect x="414" y="154" width="228" height="92" rx="8" fill="#eef8f6" stroke="#bfe7e1"/>
  <rect x="438" y="178" width="128" height="14" rx="5" fill="#207f74"/>
  <rect x="438" y="204" width="172" height="12" rx="5" fill="#6f817f" opacity=".7"/>
  <circle cx="602" cy="199" r="20" fill="#2c9f91"/>
  <path d="M592 199h20M602 189v20" stroke="#ffffff" stroke-width="4" stroke-linecap="round"/>

  <rect x="414" y="274" width="228" height="168" rx="8" fill="#ffffff" stroke="#d8dee8"/>
  <rect x="438" y="302" width="92" height="14" rx="5" fill="#101828"/>
  <rect x="438" y="344" width="22" height="62" rx="5" fill="#2c9f91"/>
  <rect x="476" y="326" width="22" height="80" rx="5" fill="#6d5bd0"/>
  <rect x="514" y="358" width="22" height="48" rx="5" fill="#d85f57"/>
  <rect x="552" y="316" width="22" height="90" rx="5" fill="#2c9f91"/>
  <rect x="590" y="338" width="22" height="68" rx="5" fill="#101828"/>
  <line x1="438" y1="418" x2="614" y2="418" stroke="#d8dee8" stroke-width="2"/>

  <rect x="78" y="380" width="140" height="62" rx="8" fill="#fff7ed" stroke="#fed7aa"/>
  <rect x="98" y="400" width="88" height="12" rx="5" fill="#9a3412"/>
  <rect x="98" y="424" width="58" height="10" rx="5" fill="#d85f57"/>
  <rect x="242" y="380" width="136" height="62" rx="8" fill="#f3f1ff" stroke="#d8d2ff"/>
  <rect x="262" y="400" width="74" height="12" rx="5" fill="#5142ad"/>
  <rect x="262" y="424" width="88" height="10" rx="5" fill="#6d5bd0"/>
  <path d="M80 474h560" stroke="#d8dee8" stroke-width="2" stroke-linecap="round"/>
  <rect x="80" y="486" width="104" height="14" rx="5" fill="#d8dee8"/>
  <rect x="204" y="486" width="180" height="14" rx="5" fill="#d8dee8"/>
  <rect x="404" y="486" width="96" height="14" rx="5" fill="#d8dee8"/>
</svg>
